<?xml version="1.0" encoding="utf-8"?>
<!-- Generator: Adobe Illustrator 16.0.0, SVG Export Plug-In . SVG Version: 6.00 Build 0)  -->
<!DOCTYPE svg PUBLIC "-//W3C//DTD SVG 1.1//EN" "http://www.w3.org/Graphics/SVG/1.1/DTD/svg11.dtd">
<svg version="1.1" id="Layer_1" xmlns="http://www.w3.org/2000/svg" xmlns:xlink="http://www.w3.org/1999/xlink" x="0px" y="0px"
	 width="125px" height="125px" viewBox="0 0 125 125" enable-background="new 0 0 125 125" xml:space="preserve">
<g>
	<defs>
		<rect id="SVGID_1_" width="125" height="125"/>
	</defs>
	<clipPath id="SVGID_2_">
		<use xlink:href="#SVGID_1_"  overflow="visible"/>
	</clipPath>
	<path clip-path="url(#SVGID_2_)" fill="#418EF6" d="M89.912,125H35.088C15.741,125,0,109.26,0,89.912V35.087
		C0,15.74,15.741,0,35.088,0h54.824C109.26,0,125,15.74,125,35.087h-15.351c0-10.882-8.854-19.736-19.737-19.736H35.088
		c-10.883,0-19.737,8.854-19.737,19.736v54.825c0,10.883,8.854,19.737,19.737,19.737h54.824c10.883,0,19.737-8.854,19.737-19.737
		H125C125,109.26,109.26,125,89.912,125"/>
	<path clip-path="url(#SVGID_2_)" d="M76.206,96.491H48.794c-11.186,0-20.285-9.1-20.285-20.285h13.157
		c0,3.931,3.198,7.127,7.128,7.127h27.412c3.93,0,7.127-3.196,7.127-7.127V48.794c0-3.93-3.197-7.128-7.127-7.128H48.794
		c-3.93,0-7.128,3.198-7.128,7.128H28.509c0-11.186,9.099-20.285,20.285-20.285h27.412c11.187,0,20.285,9.099,20.285,20.285v27.412
		C96.491,87.392,87.393,96.491,76.206,96.491"/>
</g>
</svg>
